# xmcd
#
# Track frame offsets:
#	150
#	13135
#	26087
#	39716
#	52471
#	69800
#	81905
#	94006
#	105409
#	119232
#	131187
#	142853
#
# Disc length: 2033
#
# Revision: 1
# Processed by: cddbd v1.5.1PL2 Copyright (c) Steve Scherf et al.
# Submitted via: kTunes Lite (development) 1.0patch43.23
#
DISCID=ac07ef0c
DTITLE=Johnny Cash - ZMPA−102
DYEAR=2006
DGENRE=Country
TTITLE0=Johnny Cash - Ring Of Fire
TTITLE1=Johnny Cash - I Walk The Line
TTITLE2=Johnny Cash - Jackson (duet)
TTITLE3=Johnny Cash - Folsom Prison Blues
TTITLE4=Johnny Cash - A Boy Named Sue
TTITLE5=Johnny Cash - A Thing Called Love
TTITLE6=Johnny Cash - Big River
TTITLE7=Johnny Cash - Get Rhythm
TTITLE8=Johnny Cash - Man In Black
TTITLE9=Johnny Cash - San Quentin
TTITLE10=Johnny Cash - Cry, Cry, Cry
TTITLE11=Johnny Cash - Guess Things Happen That Way
EXTD=
EXTT0=
EXTT1=
EXTT2=
EXTT3=
EXTT4=
EXTT5=
EXTT6=
EXTT7=
EXTT8=
EXTT9=
EXTT10=
EXTT11=
PLAYORDER=
